<?xml version="1.0" encoding="UTF-8"?>
<svg width="700pt" height="700pt" version="1.1" viewBox="0 0 700 700" xmlns="http://www.w3.org/2000/svg" xmlns:xlink="http://www.w3.org/1999/xlink">
 <defs>
  <symbol id="t" overflow="visible">
   <path d="m0.15625-0.015625c-0.011719 0.011719-0.023438 0.015625-0.03125 0.015625h-0.03125c-0.023438 0-0.042969-0.0039062-0.0625-0.015625-0.011719-0.019531-0.015625-0.039062-0.015625-0.0625 0-0.03125 0.0039062-0.050781 0.015625-0.0625 0.019531-0.019531 0.039062-0.03125 0.0625-0.03125h0.03125c0.007812 0 0.019531 0.007813 0.03125 0.015625v0.03125h-0.03125c0-0.007812-0.007812-0.015625-0.015625-0.015625-0.023438 0-0.039062 0.007813-0.046875 0.015625v0.046875 0.03125c0.0078125 0.011719 0.023438 0.015625 0.046875 0.015625h0.015625c0.007812 0 0.019531-0.0039062 0.03125-0.015625z"/>
  </symbol>
  <symbol id="a" overflow="visible">
   <path d="m0.10938-0.09375h-0.015625c-0.011719 0-0.023438 0.0078125-0.03125 0.015625v0.015625 0.0625h-0.046875v-0.125h0.046875v0.015625-0.015625h0.03125 0.015625z"/>
  </symbol>
  <symbol id="d" overflow="visible">
   <path d="m0.14062-0.0625v0.015625h-0.09375v0.015625h0.03125 0.03125c0.007813 0 0.019531-0.0039062 0.03125-0.015625v0.046875h-0.03125-0.03125c-0.023438 0-0.039062-0.0039062-0.046875-0.015625-0.011719-0.0078125-0.015625-0.023438-0.015625-0.046875 0-0.019531 0.0039062-0.035156 0.015625-0.046875 0.0078125-0.007813 0.023438-0.015625 0.046875-0.015625 0.019531 0 0.035156 0.007812 0.046875 0.015625 0.007812 0.011719 0.015625 0.027344 0.015625 0.046875zm-0.03125-0.015625c0-0.0078125-0.007813-0.015625-0.015625-0.015625h-0.015625-0.03125v0.015625z"/>
  </symbol>
  <symbol id="f" overflow="visible">
   <path d="m0.078125-0.0625c-0.011719 0-0.023438 0.0078125-0.03125 0.015625v0.015625h0.015625 0.015625l0.015625-0.015625v-0.015625zm0.0625-0.015625v0.078125h-0.046875v-0.015625c0 0.011719-0.0078125 0.015625-0.015625 0.015625h-0.03125-0.03125v-0.046875c0-0.0078125 0.0039062-0.015625 0.015625-0.015625 0.0078125-0.0078125 0.023438-0.015625 0.046875-0.015625h0.015625c0-0.0078125-0.0078125-0.015625-0.015625-0.015625h-0.015625-0.03125-0.015625v-0.03125h0.03125 0.03125c0.019531 0 0.035156 0.007812 0.046875 0.015625 0.007812 0.011719 0.015625 0.023438 0.015625 0.03125z"/>
  </symbol>
  <symbol id="c" overflow="visible">
   <path d="m0.0625-0.15625v0.03125h0.046875v0.03125h-0.046875v0.046875 0.015625h0.015625 0.015625v0.03125h-0.03125-0.03125c-0.011719-0.0078125-0.015625-0.023438-0.015625-0.046875v-0.046875h-0.015625v-0.03125h0.015625v-0.03125z"/>
  </symbol>
  <symbol id="k" overflow="visible">
   <path d="m0.10938-0.10938v-0.0625h0.03125v0.17188h-0.03125v-0.015625c-0.011719 0.011719-0.023438 0.015625-0.03125 0.015625h-0.015625c-0.011719 0-0.023438-0.0039062-0.03125-0.015625-0.011719-0.0078125-0.015625-0.023438-0.015625-0.046875 0-0.019531 0.0039062-0.035156 0.015625-0.046875 0.0078125-0.007813 0.019531-0.015625 0.03125-0.015625h0.015625c0.0078125 0 0.019531 0.007812 0.03125 0.015625zm-0.03125 0.078125h0.015625c0.007812-0.0078125 0.015625-0.019531 0.015625-0.03125 0-0.0078125-0.007813-0.015625-0.015625-0.015625 0-0.0078125-0.0078125-0.015625-0.015625-0.015625-0.011719 0-0.023438 0.0078125-0.03125 0.015625v0.015625 0.03125h0.03125z"/>
  </symbol>
  <symbol id="j" overflow="visible">
   <path d="m0.078125-0.03125h0.015625c0.007812-0.0078125 0.015625-0.019531 0.015625-0.03125 0-0.0078125-0.007813-0.015625-0.015625-0.015625 0-0.0078125-0.0078125-0.015625-0.015625-0.015625l-0.015625 0.015625v0.015625 0.03125h0.015625zm-0.015625-0.078125c0-0.007813 0.0039062-0.015625 0.015625-0.015625h0.015625c0.019531 0 0.035156 0.007812 0.046875 0.015625 0.007813 0.011719 0.015625 0.027344 0.015625 0.046875 0 0.023438-0.007812 0.039062-0.015625 0.046875-0.011719 0.011719-0.027344 0.015625-0.046875 0.015625h-0.015625c-0.011719 0-0.015625-0.0039062-0.015625-0.015625v0.015625h-0.046875v-0.17188h0.046875z"/>
  </symbol>
  <symbol id="i" overflow="visible">
   <path d="m0-0.125h0.046875l0.03125 0.078125 0.03125-0.078125h0.03125l-0.046875 0.14062c-0.011719 0.0078125-0.023438 0.015625-0.03125 0.015625 0 0.0078125-0.0078125 0.015625-0.015625 0.015625h-0.03125v-0.03125h0.015625 0.015625s0.0039062-0.0078125 0.015625-0.015625z"/>
  </symbol>
  <symbol id="e" overflow="visible">
   <path d="m0.0625-0.015625v0.0625h-0.046875v-0.17188h0.046875v0.015625c0-0.007813 0.0039062-0.015625 0.015625-0.015625h0.015625c0.019531 0 0.035156 0.007812 0.046875 0.015625 0.007813 0.011719 0.015625 0.027344 0.015625 0.046875 0 0.023438-0.007812 0.039062-0.015625 0.046875-0.011719 0.011719-0.027344 0.015625-0.046875 0.015625h-0.015625c-0.011719 0-0.015625-0.0039062-0.015625-0.015625zm0.015625-0.078125-0.015625 0.015625v0.015625 0.03125h0.015625 0.015625c0.007812-0.0078125 0.015625-0.019531 0.015625-0.03125 0-0.0078125-0.007813-0.015625-0.015625-0.015625 0-0.0078125-0.0078125-0.015625-0.015625-0.015625z"/>
  </symbol>
  <symbol id="b" overflow="visible">
   <path d="m0.078125-0.09375c-0.011719 0-0.023438 0.0078125-0.03125 0.015625v0.015625 0.03125h0.03125 0.015625c0.007812-0.0078125 0.015625-0.019531 0.015625-0.03125 0-0.0078125-0.007813-0.015625-0.015625-0.015625 0-0.0078125-0.0078125-0.015625-0.015625-0.015625zm0-0.03125c0.019531 0 0.035156 0.007812 0.046875 0.015625 0.007812 0.011719 0.015625 0.027344 0.015625 0.046875 0 0.023438-0.007813 0.039062-0.015625 0.046875-0.011719 0.011719-0.027344 0.015625-0.046875 0.015625-0.023438 0-0.039062-0.0039062-0.046875-0.015625-0.011719-0.0078125-0.015625-0.023438-0.015625-0.046875 0-0.019531 0.0039062-0.035156 0.015625-0.046875 0.0078125-0.007813 0.023438-0.015625 0.046875-0.015625z"/>
  </symbol>
  <symbol id="h" overflow="visible">
   <path d="m0.125-0.125v0.03125h-0.03125-0.015625l-0.015625 0.015625c-0.011719 0-0.015625 0.0078125-0.015625 0.015625 0 0.011719 0.0039062 0.023438 0.015625 0.03125h0.015625 0.015625 0.03125v0.03125h-0.03125-0.015625c-0.023438 0-0.039062-0.0039062-0.046875-0.015625-0.011719-0.0078125-0.015625-0.023438-0.015625-0.046875 0-0.019531 0.0039062-0.035156 0.015625-0.046875 0.0078125-0.007813 0.023438-0.015625 0.046875-0.015625h0.015625 0.03125z"/>
  </symbol>
  <symbol id="g" overflow="visible">
   <path d="m0.14062-0.078125v0.078125h-0.03125v-0.0625-0.015625s-0.007813-0.0039062-0.015625-0.015625h-0.015625l-0.015625 0.015625v0.015625 0.0625h-0.046875v-0.125h0.046875v0.015625c0-0.007813 0.0039062-0.015625 0.015625-0.015625h0.015625c0.019531 0 0.03125 0.007812 0.03125 0.015625 0.007812 0.011719 0.015625 0.023438 0.015625 0.03125z"/>
  </symbol>
  <symbol id="s" overflow="visible">
   <path d="m0.125-0.125v0.03125h-0.03125-0.03125-0.015625v0.015625h0.015625 0.015625c0.019531 0 0.03125 0.0078125 0.03125 0.015625 0.007813 0 0.015625 0.011719 0.015625 0.03125 0 0.011719-0.007812 0.023438-0.015625 0.03125h-0.046875-0.03125-0.015625v-0.03125h0.015625 0.03125 0.015625v-0.015625h-0.015625c-0.023438 0-0.039062-0.0039062-0.046875-0.015625v-0.03125c0-0.007812 0.0039062-0.015625 0.015625-0.015625 0.0078125-0.007813 0.019531-0.015625 0.03125-0.015625h0.03125 0.03125z"/>
  </symbol>
  <symbol id="r" overflow="visible">
   <path d="m0.09375-0.17188v0.03125h-0.015625-0.015625v0.015625h0.03125v0.03125h-0.03125v0.09375h-0.03125v-0.09375h-0.03125v-0.03125h0.03125v-0.03125c0.0078125-0.007812 0.023438-0.015625 0.046875-0.015625z"/>
  </symbol>
  <symbol id="q" overflow="visible">
   <path d="m0.14062-0.10938h0.015625c0.007812-0.007813 0.015625-0.015625 0.015625-0.015625 0.019531 0 0.03125 0.007812 0.03125 0.015625 0.007813 0.011719 0.015625 0.023438 0.015625 0.03125v0.078125h-0.046875v-0.0625-0.015625-0.015625c-0.011719 0-0.023437 0.0078125-0.03125 0.015625v0.015625 0.0625h-0.046875v-0.0625-0.015625c0-0.0078125-0.0078125-0.015625-0.015625-0.015625l-0.015625 0.015625v0.015625 0.0625h-0.046875v-0.125h0.046875v0.015625-0.015625h0.03125c0.007812 0 0.015625 0.007812 0.015625 0.015625h0.03125z"/>
  </symbol>
  <symbol id="p" overflow="visible">
   <path d="m0.14062-0.078125v0.078125h-0.03125v-0.0625-0.015625s-0.007813-0.0039062-0.015625-0.015625h-0.015625l-0.015625 0.015625v0.015625 0.0625h-0.046875v-0.17188h0.046875v0.0625c0-0.007813 0.0039062-0.015625 0.015625-0.015625h0.015625c0.019531 0 0.03125 0.007812 0.03125 0.015625 0.007812 0.011719 0.015625 0.023438 0.015625 0.03125z"/>
  </symbol>
  <symbol id="o" overflow="visible">
   <path d="m0.015625-0.17188h0.046875l0.0625 0.125v-0.125h0.046875v0.17188h-0.046875l-0.0625-0.10938v0.10938h-0.046875z"/>
  </symbol>
  <symbol id="n" overflow="visible">
   <path d="m0.015625-0.046875v-0.078125h0.046875v0.015625 0.015625 0.03125 0.015625 0.015625h0.015625 0.015625c0.007812-0.0078125 0.015625-0.019531 0.015625-0.03125v-0.0625h0.03125v0.125h-0.03125v-0.015625c-0.011719 0.011719-0.023438 0.015625-0.03125 0.015625h-0.015625c-0.011719 0-0.023438-0.0039062-0.03125-0.015625-0.011719-0.0078125-0.015625-0.019531-0.015625-0.03125z"/>
  </symbol>
  <symbol id="m" overflow="visible">
   <path d="m0.015625-0.17188h0.078125c0.019531 0 0.035156 0.007813 0.046875 0.015625 0.007813 0.011719 0.015625 0.027344 0.015625 0.046875 0 0.023438-0.007812 0.039062-0.015625 0.046875h-0.046875-0.03125v0.0625h-0.046875zm0.046875 0.03125v0.046875h0.03125c0.007812 0 0.015625-0.0039062 0.015625-0.015625 0-0.007813-0.007813-0.015625-0.015625-0.015625v-0.015625z"/>
  </symbol>
  <symbol id="l" overflow="visible">
   <path d="m0.015625-0.125h0.046875v0.125c0 0.0078125-0.0078125 0.019531-0.015625 0.03125-0.011719 0.0078125-0.023438 0.015625-0.03125 0.015625h-0.015625v-0.03125h0.015625v-0.015625zm0-0.046875h0.046875v0.03125h-0.046875z"/>
  </symbol>
 </defs>
 <g style="fill: #E8DEB9">
  <path d="m350.02 0c37.262 0 70.125 32.77 93.09 85.754 3.2539 7.5625 6.3711 15.539 9.2109 23.879 8.8008-1.375 17.324-2.4297 25.531-3.0703 57.523-4.582 101.89 9.0742 119.4 42.031 17.508 32.91 3.9883 77.32-31.992 122.42-2.3828 2.9805-4.8594 6.0039-7.4258 8.9844 2.5664 3.0234 5.0859 6.0039 7.4258 8.9844 35.98 45.102 49.5 89.516 31.992 122.42-17.508 32.953-61.875 46.613-119.4 42.031-8.2031-0.64062-16.73-1.6484-25.531-3.0703-2.8398 8.3867-5.957 16.363-9.2109 23.879-22.961 52.984-55.824 85.754-93.09 85.754-37.309 0-70.172-32.77-93.133-85.754-3.2539-7.5156-6.3711-15.492-9.2109-23.879-8.8008 1.4219-17.324 2.4297-25.531 3.0703-57.523 4.582-101.89-9.0742-119.4-42.031-17.508-32.91-3.9883-77.32 31.992-122.42 2.3828-2.9805 4.8594-5.957 7.4258-8.9844-2.5664-2.9805-5.043-6.0039-7.4258-8.9844-35.98-45.102-49.5-89.516-31.992-122.42 17.508-32.953 61.875-46.613 119.4-42.031 8.2031 0.64062 16.73 1.6953 25.531 3.0703 2.8398-8.3398 5.957-16.316 9.2109-23.879 22.961-52.984 55.824-85.754 93.133-85.754zm191.54 297.64c-19.02 19.344-41.891 38.547-67.836 56.695-3.207 26.078-8.0664 50.602-14.254 72.969 6.9219 1.0547 13.703 1.832 20.258 2.3359 47.898 3.8047 83.785-5.6836 96.434-29.426 12.605-23.742 0.36719-58.852-29.562-96.391-1.6055-2.0625-3.3008-4.125-5.043-6.1875zm-383.12-35.293c19.02-19.344 41.891-38.547 67.836-56.695 3.207-26.078 8.0664-50.602 14.254-72.969-6.9219-1.0078-13.703-1.7891-20.258-2.3359-47.898-3.8047-83.785 5.7305-96.434 29.426-12.605 23.742-0.36719 58.852 29.562 96.391 1.6484 2.0625 3.3008 4.125 5.043 6.1875zm16.086 17.645c14.07 14.391 30.434 28.738 48.766 42.672-0.96094-13.934-1.4648-28.188-1.4648-42.672s0.50391-28.738 1.4648-42.625c-18.332 13.887-34.695 28.234-48.766 42.625zm74.25 60.82c16.27 10.953 33.781 21.449 52.25 31.258 16.41 8.707 32.816 16.5 48.996 23.285 16.133-6.7852 32.543-14.531 48.906-23.285h0.046875c18.473-9.8086 35.98-20.305 52.25-31.258 2.0156-19.48 3.0703-39.828 3.0703-60.82 0-20.945-1.0547-41.344-3.0703-60.82-16.27-10.91-33.781-21.406-52.25-31.258-16.41-8.707-32.816-16.5-48.949-23.285-16.18 6.7852-32.59 14.574-48.949 23.285h-0.046875c-18.473 9.8555-35.98 20.352-52.25 31.258-2.0156 19.48-3.0703 39.875-3.0703 60.82 0 20.992 1.0547 41.344 3.0703 60.82zm132.69 66.688c18.793 6.5547 37.078 11.734 54.496 15.492 4.4922-15.906 8.25-33 11.184-51.105-11.824 7.332-24.199 14.484-36.988 21.266-9.5781 5.0859-19.16 9.8984-28.691 14.348zm144.01-127.51c-14.023-14.391-30.387-28.738-48.723-42.625 0.91797 13.887 1.4219 28.141 1.4219 42.625 0 14.484-0.50391 28.738-1.4219 42.672 18.332-13.934 34.695-28.281 48.723-42.672zm-206.94-127.51c-18.793-6.5547-37.078-11.734-54.496-15.492-4.4922 15.906-8.25 33.047-11.184 51.152 11.824-7.3789 24.199-14.531 36.988-21.312 9.5781-5.0859 19.16-9.8555 28.691-14.348zm-47.254-38.316c24.98 5.5469 51.516 13.797 78.695 24.66 27.18-10.863 53.762-19.113 78.742-24.66-2.3359-6.6445-4.8594-12.973-7.4727-19.02-19.066-44-44.32-71.273-71.227-71.273-26.949 0-52.203 27.27-71.273 71.273-2.6133 6.0508-5.1328 12.375-7.4727 19.02zm110.18 38.316c9.5352 4.4922 19.113 9.2578 28.691 14.348 12.789 6.7852 25.164 13.934 36.988 21.312-2.9336-18.105-6.6914-35.246-11.184-51.152-17.418 3.7578-35.703 8.9375-54.496 15.492zm92.266 53.168c25.941 18.148 48.812 37.355 67.836 56.695 1.7422-2.0625 3.4375-4.125 5.043-6.1875 29.93-37.539 42.168-72.648 29.562-96.391-12.648-23.695-48.539-33.23-96.434-29.426-6.5547 0.55078-13.336 1.3281-20.258 2.3359 6.1875 22.367 11.047 46.887 14.254 72.969zm-45.008 240.21c-24.98-5.5469-51.516-13.797-78.695-24.703-27.18 10.91-53.762 19.16-78.742 24.703 2.3359 6.6016 4.8594 12.926 7.4727 18.977 19.066 44.047 44.32 71.273 71.273 71.273 26.906 0 52.16-27.227 71.227-71.273 2.6133-6.0508 5.1328-12.375 7.4727-18.977zm-110.18-38.363c-9.5352-4.4453-19.113-9.2578-28.691-14.348-12.789-6.7852-25.164-13.934-36.988-21.266 2.9336 18.105 6.6914 35.199 11.184 51.105 17.418-3.7578 35.703-8.9375 54.496-15.492zm-92.266-53.168c-25.941-18.148-48.812-37.355-67.836-56.695-1.7422 2.0625-3.3906 4.125-5.043 6.1875-29.93 37.539-42.168 72.648-29.562 96.391 12.648 23.742 48.539 33.23 96.434 29.426 6.5547-0.50391 13.336-1.2852 20.258-2.3359-6.1875-22.367-11.047-46.887-14.254-72.969zm123.75-146.26c32.266 0 58.391 5.3164 58.391 11.824 0 6.5547-26.125 11.871-58.391 11.871-32.312 0-58.438-5.3164-58.438-11.871 0-6.5078 26.125-11.824 58.438-11.824zm55.965 104.91c1.6055 1.1016 2.4297 2.2461 2.4297 3.4375v23.648c0 6.5078-26.125 11.824-58.391 11.824-32.312 0-58.438-5.3164-58.438-11.824v-23.648c0-1.1914 0.82422-2.3359 2.4297-3.4375 7.2422 4.9023 29.562 8.4336 56.008 8.4336 26.402 0 48.723-3.5273 55.965-8.4336zm0-40.012c1.6055 1.1016 2.4297 2.2461 2.4297 3.3906v23.695c0 6.5078-26.125 11.824-58.391 11.824-32.312 0-58.438-5.3164-58.438-11.824v-23.695c0-1.1445 0.82422-2.293 2.4297-3.3906 7.2422 4.9023 29.562 8.4336 56.008 8.4336 26.402 0 48.723-3.5273 55.965-8.4336zm0-40.012c1.6055 1.0547 2.4297 2.1992 2.4297 3.3906v23.648c0 6.5547-26.125 11.871-58.391 11.871-32.312 0-58.438-5.3164-58.438-11.871v-23.648c0-1.1914 0.82422-2.3359 2.4297-3.3906 7.2422 4.8594 29.562 8.4336 56.008 8.4336 26.402 0 48.723-3.5742 55.965-8.4336z"/>
  <use x="95.140625" y="560.6875" xlink:href="#t"/>
  <use x="95.308594" y="560.6875" xlink:href="#a"/>
  <use x="95.421875" y="560.6875" xlink:href="#d"/>
  <use x="95.578125" y="560.6875" xlink:href="#f"/>
  <use x="95.730469" y="560.6875" xlink:href="#c"/>
  <use x="95.839844" y="560.6875" xlink:href="#d"/>
  <use x="95.996094" y="560.6875" xlink:href="#k"/>
  <use x="96.238281" y="560.6875" xlink:href="#j"/>
  <use x="96.402344" y="560.6875" xlink:href="#i"/>
  <use x="96.632812" y="560.6875" xlink:href="#e"/>
  <use x="96.796875" y="560.6875" xlink:href="#b"/>
  <use x="96.953125" y="560.6875" xlink:href="#e"/>
  <use x="97.117187" y="560.6875" xlink:href="#h"/>
  <use x="97.253906" y="560.6875" xlink:href="#b"/>
  <use x="97.410156" y="560.6875" xlink:href="#a"/>
  <use x="97.523437" y="560.6875" xlink:href="#g"/>
  <use x="97.6875" y="560.6875" xlink:href="#f"/>
  <use x="97.84375" y="560.6875" xlink:href="#a"/>
  <use x="97.957031" y="560.6875" xlink:href="#c"/>
  <use x="98.066406" y="560.6875" xlink:href="#s"/>
  <use x="95.140625" y="560.917969" xlink:href="#r"/>
  <use x="95.238281" y="560.917969" xlink:href="#a"/>
  <use x="95.351562" y="560.917969" xlink:href="#b"/>
  <use x="95.511719" y="560.917969" xlink:href="#q"/>
  <use x="95.828125" y="560.917969" xlink:href="#c"/>
  <use x="95.9375" y="560.917969" xlink:href="#p"/>
  <use x="96.101562" y="560.917969" xlink:href="#d"/>
  <use x="96.335938" y="560.917969" xlink:href="#o"/>
  <use x="96.527344" y="560.917969" xlink:href="#b"/>
  <use x="96.6875" y="560.917969" xlink:href="#n"/>
  <use x="96.847656" y="560.917969" xlink:href="#g"/>
  <use x="97.09375" y="560.917969" xlink:href="#m"/>
  <use x="97.261719" y="560.917969" xlink:href="#a"/>
  <use x="97.371094" y="560.917969" xlink:href="#b"/>
  <use x="97.53125" y="560.917969" xlink:href="#l"/>
  <use x="97.609375" y="560.917969" xlink:href="#d"/>
  <use x="97.765625" y="560.917969" xlink:href="#h"/>
  <use x="97.898438" y="560.917969" xlink:href="#c"/>
 </g>
</svg>
