<svg xmlns="http://www.w3.org/2000/svg" viewBox="0 0 48 48"><title>backend website</title><g id="Layer_2" data-name="Layer 2" style="fill: #E8DEB9"><path d="M42,7a1,1,0,0,0-1-1H7A1,1,0,0,0,6,7V41a1,1,0,0,0,1,1H41a1,1,0,0,0,1-1ZM40,8v2H25a1,1,0,0,0-.71.29L20.59,14H8V8ZM8,40V16H21a1,1,0,0,0,.71-.29L25.41,12H40V40Z"/><circle cx="11" cy="11" r="1"/><circle cx="15" cy="11" r="1"/><circle cx="19" cy="11" r="1"/><path d="M24,24a4,4,0,1,0,4,4A4,4,0,0,0,24,24Zm0,6a2,2,0,1,1,2-2A2,2,0,0,1,24,30Z"/><path d="M33.66,24.73l-2-3.46a1,1,0,0,0-.95-.5l-2,.17a7.86,7.86,0,0,0-1-.56l-.84-1.81A1,1,0,0,0,26,18H22a1,1,0,0,0-.91.57l-.84,1.81a7.86,7.86,0,0,0-1,.56l-2-.17a1,1,0,0,0-.95.5l-2,3.46a1,1,0,0,0,0,1.07l1.14,1.64c0,.18,0,.37,0,.56s0,.38,0,.56L14.38,30.2a1,1,0,0,0,0,1.07l2,3.46a1,1,0,0,0,.95.5l2-.17a7.86,7.86,0,0,0,1,.56l.84,1.81A1,1,0,0,0,22,38h4a1,1,0,0,0,.91-.57l.84-1.81a7.86,7.86,0,0,0,1-.56l2,.17a1,1,0,0,0,.95-.5l2-3.46a1,1,0,0,0,0-1.07l-1.14-1.64c0-.18,0-.37,0-.56s0-.38,0-.56l1.14-1.64A1,1,0,0,0,33.66,24.73ZM30.5,28c0,.25,0,.49,0,.73a1,1,0,0,0,.17.68l1,1.41-1.36,2.36L28.53,33a1,1,0,0,0-.68.2A6.9,6.9,0,0,1,26.6,34a1,1,0,0,0-.51.49L25.36,36H22.64l-.73-1.55A1,1,0,0,0,21.4,34a6.9,6.9,0,0,1-1.25-.73,1,1,0,0,0-.68-.2l-1.72.15-1.36-2.36,1-1.41a1,1,0,0,0,.17-.68c0-.24,0-.48,0-.73s0-.49,0-.73a1,1,0,0,0-.17-.68l-1-1.41,1.36-2.36,1.72.15a1,1,0,0,0,.68-.2A6.9,6.9,0,0,1,21.4,22a1,1,0,0,0,.51-.49L22.63,20h2.74l.72,1.55a1,1,0,0,0,.51.49,6.9,6.9,0,0,1,1.25.73,1,1,0,0,0,.68.2l1.72-.15,1.36,2.36-1,1.41a1,1,0,0,0-.17.68C30.48,27.51,30.5,27.75,30.5,28Z"/></g></svg>
