<?xml version="1.0" encoding="utf-8"?>
<!-- Generator: Adobe Illustrator 24.0.2, SVG Export Plug-In . SVG Version: 6.00 Build 0)  -->
<svg version="1.1" id="Layer_1" xmlns="http://www.w3.org/2000/svg" xmlns:xlink="http://www.w3.org/1999/xlink" x="0px" y="0px"
	 viewBox="0 0 512 512" style="enable-background:new 0 0 512 512;" xml:space="preserve">
<style type="text/css">
	.st0{fill:url(#SVGID_1_);}
</style>
<path style="fill: #E8DEB9" class="st0" d="M450.3,101.1h-37.5L433,51.4c6.9-17.1-1.3-36.6-18.3-43.6c0,0-0.1,0-0.1-0.1l-1.2-0.5
	c-17-6.9-36.5,1.3-43.5,18.3L339,101.2H61.7c-17.1,0-31,14-31,31.1v280.5c0,17.1,13.9,31.1,31,31.1h144.5l-9,48.2H172v15h168v-15
	h-25.3l-9-48.2h144.5c17.1,0,31.1-14,31.1-31.1V132.2C481.4,115.1,467.4,101.1,450.3,101.1z M292.8,286.5c0.1,2.9,1.9,5.5,4.7,6.6
	c0.9,0.4,1.9,0.6,2.8,0.6c1.9,0,3.7-0.7,5.1-2l12-11.2h37.3v47.7H151.4v-47.7h141.1L292.8,286.5z M307.1,269.6l-1.6-35.8l27.8,11.3
	L307.1,269.6z M307.3,218.4l66.4-162.6l10.7,4.4l-66.3,162.6L307.3,218.4z M332,228.4l66.3-162.6l10.8,4.4l-66.4,162.6L332,228.4z
	 M407.8,21.2c0,0,0.1,0,0.1,0.1l1.2,0.5c9.3,3.9,13.8,14.6,10,24l-4.3,10.6l-35.4-14.4l4.3-10.6C387.6,22,398.4,17.4,407.8,21.2z
	 M61.7,116.2h271.1l-42.3,103.5c-0.4,1-0.6,2.1-0.5,3.2l0,0l1.9,42.7h-148c-4.1,0-7.5,3.4-7.5,7.5v62.7c0,4.1,3.4,7.5,7.5,7.5h218.3
	c4.1,0,7.5-3.4,7.5-7.5V273c0-4.1-3.4-7.5-7.5-7.5h-28.7l18.6-17.3l-0.1-0.1c0.8-0.7,1.4-1.6,1.9-2.7l52.8-129.3h43.7
	c8.9,0,16.1,7.2,16.1,16.1v237.9H45.7V132.3C45.7,123.4,52.9,116.2,61.7,116.2z M299.5,492.1h-87l9-48.2h69L299.5,492.1z
	 M450.3,428.9H61.7c-8.8,0-16-7.2-16-16.1v-27.7h420.7v27.7C466.4,421.7,459.2,428.9,450.3,428.9z"/>
</svg>
